<svg width="385" height="218" viewBox="0 0 385 218" fill="none" xmlns="http://www.w3.org/2000/svg">
<path d="M1.78613 167V159.891H2.28516V161.436H2.29883C2.4401 160.943 2.69759 160.545 3.07129 160.239C3.44499 159.934 3.90299 159.781 4.44531 159.781C4.98763 159.781 5.4502 159.941 5.83301 160.26C6.22038 160.579 6.46875 160.982 6.57812 161.47H6.59863C6.72624 160.991 6.99284 160.59 7.39844 160.267C7.80859 159.943 8.29395 159.781 8.85449 159.781C9.54264 159.781 10.0941 160.002 10.5088 160.444C10.9235 160.882 11.1309 161.467 11.1309 162.201V167H10.5977V162.324C10.5977 161.686 10.4313 161.183 10.0986 160.813C9.76595 160.444 9.31022 160.26 8.73145 160.26C8.13444 160.26 7.64909 160.476 7.27539 160.909C6.90625 161.338 6.72168 161.894 6.72168 162.577V167H6.19531V162.304C6.19531 161.693 6.02214 161.201 5.67578 160.827C5.32943 160.449 4.88281 160.26 4.33594 160.26C3.73893 160.26 3.25358 160.488 2.87988 160.943C2.50618 161.399 2.31934 162.003 2.31934 162.755V167H1.78613ZM13.4168 167V159.891H13.95V167H13.4168ZM13.9773 158.018C13.8953 158.1 13.7973 158.141 13.6834 158.141C13.5695 158.141 13.4715 158.1 13.3895 158.018C13.3074 157.936 13.2664 157.838 13.2664 157.724C13.2664 157.61 13.3074 157.514 13.3895 157.437C13.4715 157.354 13.5695 157.313 13.6834 157.313C13.7973 157.313 13.8953 157.354 13.9773 157.437C14.0594 157.514 14.1004 157.61 14.1004 157.724C14.1004 157.838 14.0594 157.936 13.9773 158.018ZM16.2838 167V159.891H16.7828V161.436H16.7965C16.9605 160.939 17.2613 160.54 17.6988 160.239C18.1409 159.934 18.6604 159.781 19.2574 159.781C20.0413 159.781 20.6702 160.018 21.1441 160.492C21.6181 160.962 21.8551 161.595 21.8551 162.393V167H21.3219V162.461C21.3219 161.777 21.1236 161.24 20.7271 160.848C20.3307 160.456 19.7997 160.26 19.1344 160.26C18.4462 160.26 17.888 160.492 17.4596 160.957C17.0312 161.417 16.817 162.017 16.817 162.755V167H16.2838Z" fill="#1C1C1C"/>
<path d="M1.78613 90V82.8906H2.28516V84.4355H2.29883C2.4401 83.9434 2.69759 83.5446 3.07129 83.2393C3.44499 82.9339 3.90299 82.7812 4.44531 82.7812C4.98763 82.7812 5.4502 82.9408 5.83301 83.2598C6.22038 83.5788 6.46875 83.9821 6.57812 84.4697H6.59863C6.72624 83.9912 6.99284 83.5902 7.39844 83.2666C7.80859 82.943 8.29395 82.7812 8.85449 82.7812C9.54264 82.7812 10.0941 83.0023 10.5088 83.4443C10.9235 83.8818 11.1309 84.4674 11.1309 85.2012V90H10.5977V85.3242C10.5977 84.6862 10.4313 84.1826 10.0986 83.8135C9.76595 83.4443 9.31022 83.2598 8.73145 83.2598C8.13444 83.2598 7.64909 83.4762 7.27539 83.9092C6.90625 84.3376 6.72168 84.8936 6.72168 85.5771V90H6.19531V85.3037C6.19531 84.693 6.02214 84.2008 5.67578 83.8271C5.32943 83.4489 4.88281 83.2598 4.33594 83.2598C3.73893 83.2598 3.25358 83.4876 2.87988 83.9434C2.50618 84.3991 2.31934 85.0029 2.31934 85.7549V90H1.78613ZM15.5701 89.6445C16.2719 89.6445 16.8689 89.4235 17.3611 88.9814C17.8579 88.5348 18.1062 87.9948 18.1062 87.3613V86.3086L15.7342 86.4795C15.0688 86.5296 14.5584 86.6937 14.2029 86.9717C13.852 87.2451 13.6766 87.6165 13.6766 88.0859C13.6766 88.5417 13.8543 88.9154 14.2098 89.207C14.5652 89.4987 15.0187 89.6445 15.5701 89.6445ZM15.4949 90.1094C14.8022 90.1094 14.2371 89.9225 13.7996 89.5488C13.3621 89.1706 13.1434 88.6829 13.1434 88.0859C13.1434 87.4798 13.3553 87.0036 13.7791 86.6572C14.2075 86.3109 14.8341 86.1058 15.659 86.042L18.1062 85.8711V85.2354C18.1062 84.6201 17.9285 84.137 17.573 83.7861C17.2221 83.4352 16.7322 83.2598 16.1033 83.2598C15.4881 83.2598 14.9913 83.4079 14.6131 83.7041C14.2348 84.0003 14.0001 84.4173 13.909 84.9551H13.3963C13.4646 84.2897 13.7404 83.7611 14.2234 83.3691C14.7111 82.9772 15.34 82.7812 16.1102 82.7812C16.8895 82.7812 17.5047 82.9977 17.9559 83.4307C18.4116 83.8636 18.6395 84.4515 18.6395 85.1943V90H18.1268V88.4756H18.1131C17.9308 88.9587 17.5958 89.3529 17.1082 89.6582C16.6251 89.959 16.0874 90.1094 15.4949 90.1094ZM23.0514 86.8076H23.0309L20.7545 90H20.1393L22.7437 86.3906L20.1529 82.8906H20.7818L23.0445 85.9873H23.065L25.3277 82.8906H25.9498L23.3521 86.377L25.9361 90H25.3209L23.0514 86.8076Z" fill="#1C1C1C"/>
<path d="M0.854492 13V3.13574H1.38086V7.43555H1.40137C1.56087 6.9388 1.86165 6.54004 2.30371 6.23926C2.74577 5.93392 3.26302 5.78125 3.85547 5.78125C4.63477 5.78125 5.26139 6.02051 5.73535 6.49902C6.21387 6.97298 6.45312 7.60645 6.45312 8.39941V13H5.92676V8.46777C5.92676 7.78874 5.72852 7.25098 5.33203 6.85449C4.93555 6.45801 4.40462 6.25977 3.73926 6.25977C3.04199 6.25977 2.47461 6.49219 2.03711 6.95703C1.59961 7.42188 1.38086 8.02344 1.38086 8.76172V13H0.854492ZM8.75273 13V5.89062H9.28594V13H8.75273ZM9.31328 4.01758C9.23125 4.09961 9.13327 4.14062 9.01934 4.14062C8.9054 4.14062 8.80742 4.09961 8.72539 4.01758C8.64336 3.93555 8.60234 3.83757 8.60234 3.72363C8.60234 3.6097 8.64336 3.514 8.72539 3.43652C8.80742 3.35449 8.9054 3.31348 9.01934 3.31348C9.13327 3.31348 9.23125 3.35449 9.31328 3.43652C9.39531 3.514 9.43633 3.6097 9.43633 3.72363C9.43633 3.83757 9.39531 3.93555 9.31328 4.01758ZM14.3336 12.6104C15.0947 12.6104 15.7145 12.3164 16.193 11.7285C16.676 11.1406 16.9176 10.3773 16.9176 9.43848C16.9176 8.49967 16.676 7.73633 16.193 7.14844C15.7145 6.55599 15.0947 6.25977 14.3336 6.25977C13.5771 6.25977 12.9641 6.55371 12.4947 7.1416C12.0299 7.72949 11.7975 8.4974 11.7975 9.44531C11.7975 10.3932 12.0299 11.1589 12.4947 11.7422C12.9641 12.321 13.5771 12.6104 14.3336 12.6104ZM14.4771 15.5635C13.7298 15.5635 13.0986 15.3903 12.5836 15.0439C12.0732 14.7021 11.7678 14.2715 11.6676 13.752H12.2145C12.3375 14.1484 12.6018 14.472 13.0074 14.7227C13.413 14.9733 13.912 15.0986 14.5045 15.0986C15.2382 15.0986 15.8238 14.9004 16.2613 14.5039C16.6988 14.112 16.9176 13.5902 16.9176 12.9385V11.1133H16.8971C16.733 11.6829 16.4117 12.1546 15.9332 12.5283C15.4592 12.902 14.9033 13.0889 14.2652 13.0889C13.3674 13.0889 12.6428 12.7539 12.0914 12.084C11.54 11.4095 11.2643 10.5277 11.2643 9.43848C11.2643 8.34473 11.54 7.46289 12.0914 6.79297C12.6474 6.11849 13.3743 5.78125 14.2721 5.78125C14.9101 5.78125 15.4684 5.97038 15.9469 6.34863C16.4254 6.72689 16.7535 7.20996 16.9312 7.79785H16.9449V5.89062H17.4439V12.918C17.4439 13.7201 17.1751 14.3604 16.6373 14.8389C16.1041 15.3219 15.384 15.5635 14.4771 15.5635ZM19.7982 13V3.13574H20.3246V7.43555H20.3451C20.5046 6.9388 20.8054 6.54004 21.2475 6.23926C21.6895 5.93392 22.2068 5.78125 22.7992 5.78125C23.5785 5.78125 24.2051 6.02051 24.6791 6.49902C25.1576 6.97298 25.3969 7.60645 25.3969 8.39941V13H24.8705V8.46777C24.8705 7.78874 24.6723 7.25098 24.2758 6.85449C23.8793 6.45801 23.3484 6.25977 22.683 6.25977C21.9857 6.25977 21.4184 6.49219 20.9809 6.95703C20.5434 7.42188 20.3246 8.02344 20.3246 8.76172V13H19.7982Z" fill="#1C1C1C"/>
<path d="M73.5561 158.729C94.4723 125.322 154.266 60.7573 226.112 69.7513C297.958 78.7453 339.648 31.198 351.512 6.30014" stroke="#1C1C1C" stroke-width="3"/>
<line x1="42.5" y1="198" x2="42.5" y2="218" stroke="#1C1C1C"/>
<line x1="280.214" y1="198" x2="280.214" y2="218" stroke="#1C1C1C"/>
<line x1="161.357" y1="198" x2="161.357" y2="218" stroke="#1C1C1C"/>
<line x1="101.929" y1="198" x2="101.929" y2="218" stroke="#1C1C1C"/>
<line x1="339.643" y1="198" x2="339.643" y2="218" stroke="#1C1C1C"/>
<line x1="220.786" y1="198" x2="220.786" y2="218" stroke="#1C1C1C"/>
<line x1="72.2139" y1="198" x2="72.2139" y2="218" stroke="#0F488B"/>
<line x1="309.929" y1="198" x2="309.929" y2="218" stroke="#1C1C1C"/>
<line x1="191.071" y1="198" x2="191.071" y2="218" stroke="#1C1C1C"/>
<line x1="131.643" y1="198" x2="131.643" y2="218" stroke="#1C1C1C"/>
<line x1="369.357" y1="198" x2="369.357" y2="218" stroke="#1C1C1C"/>
<line x1="250.5" y1="198" x2="250.5" y2="218" stroke="#1C1C1C"/>
<line x1="57.3574" y1="198" x2="57.3574" y2="218" stroke="#1C1C1C"/>
<line x1="295.071" y1="198" x2="295.071" y2="218" stroke="#1C1C1C"/>
<line x1="176.214" y1="198" x2="176.214" y2="218" stroke="#1C1C1C"/>
<line x1="116.786" y1="198" x2="116.786" y2="218" stroke="#1C1C1C"/>
<line x1="354.5" y1="198" x2="354.5" y2="218" stroke="#1C1C1C"/>
<line x1="235.643" y1="198" x2="235.643" y2="218" stroke="#1C1C1C"/>
<line x1="87.0713" y1="198" x2="87.0713" y2="218" stroke="#1C1C1C"/>
<line x1="324.786" y1="198" x2="324.786" y2="218" stroke="#1C1C1C"/>
<line x1="205.929" y1="198" x2="205.929" y2="218" stroke="#0F488B"/>
<line x1="146.5" y1="198" x2="146.5" y2="218" stroke="#1C1C1C"/>
<line x1="384.214" y1="198" x2="384.214" y2="218" stroke="#1C1C1C"/>
<line x1="265.357" y1="198" x2="265.357" y2="218" stroke="#1C1C1C"/>
<line x1="49.8037" y1="201.333" x2="49.8037" y2="214.667" stroke="#1C1C1C" stroke-width="0.75"/>
<line x1="287.518" y1="201.333" x2="287.518" y2="214.667" stroke="#1C1C1C" stroke-width="0.75"/>
<line x1="168.661" y1="201.333" x2="168.661" y2="214.667" stroke="#1C1C1C" stroke-width="0.75"/>
<line x1="109.232" y1="201.333" x2="109.232" y2="214.667" stroke="#1C1C1C" stroke-width="0.75"/>
<line x1="346.946" y1="201.333" x2="346.946" y2="214.667" stroke="#0F488B" stroke-width="0.75"/>
<line x1="228.089" y1="201.333" x2="228.089" y2="214.667" stroke="#1C1C1C" stroke-width="0.75"/>
<line x1="79.5176" y1="201.333" x2="79.5176" y2="214.667" stroke="#1C1C1C" stroke-width="0.75"/>
<line x1="317.232" y1="201.333" x2="317.232" y2="214.667" stroke="#1C1C1C" stroke-width="0.75"/>
<line x1="198.375" y1="201.333" x2="198.375" y2="214.667" stroke="#1C1C1C" stroke-width="0.75"/>
<line x1="138.946" y1="201.333" x2="138.946" y2="214.667" stroke="#1C1C1C" stroke-width="0.75"/>
<line x1="376.661" y1="201.333" x2="376.661" y2="214.667" stroke="#1C1C1C" stroke-width="0.75"/>
<line x1="257.804" y1="201.333" x2="257.804" y2="214.667" stroke="#1C1C1C" stroke-width="0.75"/>
<line x1="64.6611" y1="201.333" x2="64.6611" y2="214.667" stroke="#1C1C1C" stroke-width="0.75"/>
<line x1="302.375" y1="201.333" x2="302.375" y2="214.667" stroke="#1C1C1C" stroke-width="0.75"/>
<line x1="183.518" y1="201.333" x2="183.518" y2="214.667" stroke="#1C1C1C" stroke-width="0.75"/>
<line x1="124.089" y1="201.333" x2="124.089" y2="214.667" stroke="#1C1C1C" stroke-width="0.75"/>
<line x1="361.804" y1="201.333" x2="361.804" y2="214.667" stroke="#1C1C1C" stroke-width="0.75"/>
<line x1="242.946" y1="201.333" x2="242.946" y2="214.667" stroke="#1C1C1C" stroke-width="0.75"/>
<line x1="94.375" y1="201.333" x2="94.375" y2="214.667" stroke="#1C1C1C" stroke-width="0.75"/>
<line x1="332.089" y1="201.333" x2="332.089" y2="214.667" stroke="#1C1C1C" stroke-width="0.75"/>
<line x1="213.232" y1="201.333" x2="213.232" y2="214.667" stroke="#1C1C1C" stroke-width="0.75"/>
<line x1="153.804" y1="201.333" x2="153.804" y2="214.667" stroke="#1C1C1C" stroke-width="0.75"/>
<line x1="272.661" y1="201.333" x2="272.661" y2="214.667" stroke="#1C1C1C" stroke-width="0.75"/>
<circle cx="204.901" cy="68.9014" r="4" transform="rotate(-15.0488 204.901 68.9014)" fill="#0F488B"/>
<circle cx="350.704" cy="8.99832" r="4" transform="rotate(-15.0488 350.704 8.99832)" fill="#0F488B"/>
<circle cx="73.9014" cy="159.901" r="4" transform="rotate(-15.0488 73.9014 159.901)" fill="#0F488B"/>
</svg>
