<svg width="104" height="50" viewBox="0 0 104 50" fill="none" xmlns="http://www.w3.org/2000/svg">
<path fill-rule="evenodd" clip-rule="evenodd" d="M4.21287 3.98638L0 7.97285V19.9617V31.9505L4.2106 35.9379L8.4213 39.9254H17.2598H26.0984V35.9616V31.9977L20.0662 31.9737L14.034 31.9496L14.0091 15.9748L13.9842 0H11.205H8.42573L4.21287 3.98638ZM16.2499 4.01119V8.02239H21.4676H26.6853L26.7119 10.0047L26.7385 11.9869L33.7063 12.0109L40.674 12.0348V9.99599V7.95709L37.0055 3.98022L33.337 0.00335814L24.7934 0.00167907L16.2499 0V4.01119ZM52.8861 0.0900187C52.8861 0.155597 71.2556 29.5646 77.4001 39.3361L77.7627 39.9129L82.8054 31.6889L87.8481 23.465V13.4376V3.41017L83.4414 10.567C81.0177 14.5033 79.0122 17.7224 78.985 17.7205C78.9576 17.7187 76.4061 13.7412 73.3148 8.8819L67.6943 0.0466418L60.2903 0.0227611C55.5162 0.00727607 52.8861 0.03125 52.8861 0.0900187ZM89.9825 0.0615671C89.9461 0.0960821 89.9162 9.07957 89.9162 20.0249V39.9254H96.9581H104L103.975 19.986L103.95 0.0466418L96.9995 0.0226679C93.1767 0.00951493 90.0191 0.0270522 89.9825 0.0615671ZM52.7876 21.903V39.9254H59.3368H65.8861V32.2754V24.6255L59.4211 14.3416C55.8655 8.68554 52.9183 4.01791 52.8719 3.96922C52.8252 3.92006 52.7876 11.9046 52.7876 21.903ZM21.4696 21.7817V25.7463H24.8673H28.265V32.8358V39.9254H34.4695H40.674V28.8713V17.8172H31.0718H21.4696V21.7817ZM43.8009 33.2778L43.1362 33.9132V34.4503V34.9873L45.3767 37.4548L47.6172 39.9221L49.0307 39.9238L50.4443 39.9254L49.8239 39.2491C49.4827 38.8771 49.1235 38.486 49.0257 38.38C48.8505 38.19 48.86 38.1782 49.6852 37.5494C50.1457 37.1987 50.5213 36.8867 50.5198 36.8561C50.5184 36.8254 50.2414 36.5136 49.9043 36.1632L49.2914 35.5258L48.4606 36.1418C48.0037 36.4805 47.6006 36.7464 47.5648 36.7324C47.5292 36.7185 47.0737 36.2413 46.5527 35.6721L45.6055 34.6371L45.5773 33.6665L45.549 32.6959L45.0074 32.6691L44.4657 32.6423L43.8009 33.2778ZM45.9922 33.3955V34.1418H46.4846H46.9771V34.4683V34.7948H48.1589H49.3407V34.3492C49.3407 33.9228 49.3119 33.8765 48.6734 33.2764L48.0062 32.6493H46.9992H45.9922V33.3955ZM42.862 36.5001L42.3483 36.9928V37.8897V38.7868L43.0263 39.3561L43.7042 39.9254H45.1315C47.0309 39.9254 47.0672 39.8905 46.1797 38.9153C45.8355 38.5371 45.8085 38.5261 45.2195 38.5261H44.6134V37.8602V37.1942L44.0634 36.6008C43.7609 36.2744 43.4824 36.0075 43.4445 36.0075C43.4066 36.0075 43.1445 36.2292 42.862 36.5001ZM0 47.1082V50H1.03409H2.06817V47.1082V44.2164H1.03409H0V47.1082ZM2.36363 44.7761V45.3358H3.10226H3.84089V46.3619V47.3881H3.10226H2.36363V47.9478V48.5075H3.52978H4.69603L5.3025 47.9092L5.90906 47.3109V46.344V45.377L5.29088 44.7967L4.67269 44.2164H3.51816H2.36363V44.7761ZM7.28784 47.1082V50H8.27269H9.25753V47.1082V44.2164H8.27269H7.28784V47.1082ZM9.65147 44.7761V45.3358H10.3901H11.1287V46.222V47.1082H10.3901H9.65147V47.6679C9.65147 48.2251 9.65275 48.2276 9.94111 48.2276C10.1005 48.2276 10.2546 48.1911 10.2836 48.1465C10.3303 48.075 11.2656 47.944 12.0445 47.8999C12.2235 47.8897 12.4741 47.7413 12.7586 47.4769L13.1969 47.0694V46.2232V45.377L12.5787 44.7967L11.9605 44.2164H10.806H9.65147V44.7761ZM15.0927 44.7868L14.4772 45.3537V47.0965V48.8394L15.0954 49.4197L15.7136 50H16.4742H17.2348V49.3937V48.7873H16.8386H16.4425L16.4692 47.0849L16.4961 45.3825L16.8654 45.3535L17.2348 45.3245V44.7705V44.2164L16.4715 44.2182L15.7083 44.22L15.0927 44.7868ZM17.6287 44.7761V45.3358H17.9734H18.3181V47.0616V48.7873H17.9734H17.6287V49.3937V50H18.3948H19.1609L19.7736 49.4145L20.3863 48.8289V47.103V45.377L19.7681 44.7967L19.1499 44.2164H18.3893H17.6287V44.7761ZM22.3283 44.7555L21.765 45.2946V47.067V48.8394L22.3832 49.4197C22.9188 49.9225 23.0504 50 23.3681 50H23.7347V47.1082V44.2164H23.3131C22.9302 44.2164 22.8397 44.2659 22.3283 44.7555ZM24.1287 44.7761V45.3358H24.7641H25.3996L25.4289 45.9188L25.4582 46.5019L26.4677 46.5284L27.4771 46.555V45.966V45.377L26.859 44.7967L26.2408 44.2164H25.1847H24.1287V44.7761ZM28.8559 46.5279V48.8394L29.4741 49.4197L30.0923 50H30.9021H31.712V49.4403V48.8806H31.318H30.9241V46.5485V44.2164H29.89H28.8559V46.5279ZM32.7724 46.5252L32.7461 48.834L32.3767 48.8629L32.0074 48.8919V49.4459V50H32.7735H33.5396L34.1523 49.4145L34.765 48.8289V46.5227V44.2164H33.7818H32.7987L32.7724 46.5252ZM36.3407 47.1082V50H37.3256H38.3104V47.1082V44.2164H37.3256H36.3407V47.1082ZM38.7044 44.7761V45.3358H39.443H40.1816V46.222V47.1082H39.443H38.7044V47.6679C38.7044 48.2251 38.7056 48.2276 38.994 48.2276C39.1534 48.2276 39.3075 48.1911 39.3365 48.1465C39.3832 48.075 40.3185 47.944 41.0974 47.8999C41.2764 47.8897 41.527 47.7413 41.8114 47.4769L42.2498 47.0694V46.2232V45.377L41.6316 44.7967L41.0134 44.2164H39.8589H38.7044V44.7761ZM43.6286 47.1082V50H44.6627H45.6968V48.7873V47.5746H46.6816H47.6664V47.0616V46.5485H46.6816H45.6968V45.3825V44.2164H44.6627H43.6286V47.1082ZM45.9922 44.7761V45.3358H46.6324H47.2725V45.619V45.9022L48.2327 45.8756L49.1929 45.8489L49.2214 45.0326L49.2499 44.2164H47.621H45.9922V44.7761ZM50.8305 44.4263C51.1516 44.9973 54.1077 49.6899 54.2142 49.7975C54.3138 49.8983 54.468 49.7066 55.0391 48.7714L55.7414 47.6213L55.7413 46.1754V44.7295L55.1296 45.7323C54.7931 46.2839 54.4942 46.734 54.4652 46.7327C54.4363 46.7315 54.0591 46.1648 53.6269 45.4734L52.8413 44.2164H51.7769H50.7126L50.8305 44.4263ZM56.0376 47.1082V50H57.0717H58.1058V47.1082V44.2164H57.0717H56.0376V47.1082ZM59.6815 47.1082V50H60.6634H61.6453L61.6729 48.8106L61.7005 47.6213L62.6607 47.5946L63.6209 47.5679V47.0616V46.5552L62.6607 46.5285L61.7005 46.5019L61.6728 45.3591L61.6451 44.2164H60.6633H59.6815V47.1082ZM62.0452 44.7761V45.3358H62.6853H63.3255V45.6157V45.8955H64.2611H65.1967V45.056V44.2164H63.6209H62.0452V44.7761ZM66.7724 44.2743C66.7724 44.3061 67.5812 45.6057 68.5697 47.1622L70.3671 49.9924L71.4258 49.9962C72.0081 49.9983 72.4845 49.9802 72.4845 49.9561C72.4845 49.9319 71.6607 48.6306 70.6539 47.0643L68.8232 44.2164H67.7978C67.2338 44.2164 66.7724 44.2424 66.7724 44.2743ZM70.8103 45.4704V46.7245L71.6093 47.9658C72.0487 48.6485 72.4476 49.247 72.4956 49.2957C72.5466 49.3474 72.583 48.3084 72.583 46.8004V44.2164H71.6966H70.8103V45.4704ZM73.7648 44.8228V45.4291H76.4239H79.083V44.8228V44.2164H76.4239H73.7648V44.8228ZM80.8774 44.802L80.2648 45.3875V45.9938V46.6002L80.932 47.2273L81.5992 47.8545H82.9017H84.2041V48.9272V50H84.5763C84.9023 50 85.0245 49.9273 85.5612 49.4145L86.1738 48.8289L86.1734 48.1318L86.173 47.4347L85.6239 46.8517L85.0748 46.2687H83.6546H82.2345V45.2425V44.2164H81.8623C81.5363 44.2164 81.4141 44.2891 80.8774 44.802ZM82.5299 44.7295V45.2425H83.367H84.2041V45.5224V45.8022H85.1397H86.0753V45.5484C86.0753 45.3646 85.92 45.1459 85.5121 44.7555L84.949 44.2164H83.7394H82.5299V44.7295ZM90.6056 47.1082V50H91.6397H92.6738V47.1082V44.2164H91.6397H90.6056V47.1082ZM93.6669 45.2831L92.9639 46.3497L92.9912 47.7057L93.0185 49.0616L94.6927 46.7201C95.6136 45.4322 96.3817 44.342 96.3998 44.2975C96.4179 44.2529 95.9685 44.2164 95.4012 44.2164H94.3698L93.6669 45.2831ZM98.0137 44.802L97.4011 45.3875V47.1134V48.8394L98.0192 49.4197L98.6374 50H99.8904H101.143V49.4439V48.8879L100.282 48.8609L99.42 48.834L99.3937 46.5252L99.3673 44.2164H98.9969C98.673 44.2164 98.5494 44.29 98.0137 44.802ZM99.7647 44.7761V45.3358H100.503H101.242V45.6157V45.8955H102.276H103.31V45.6389C103.31 45.4647 103.144 45.1967 102.793 44.8052L102.276 44.2283L101.02 44.2224L99.7647 44.2164V44.7761ZM50.621 47.4292V50H51.6058H52.5907V48.916V47.832L51.6937 46.3966C51.2004 45.6072 50.7572 44.9382 50.7088 44.9099C50.6581 44.8801 50.621 45.9456 50.621 47.4292ZM66.6739 47.4347V50H67.5603H68.4466V48.7669V47.5337L67.5947 46.2016C67.1263 45.4688 66.7274 44.8694 66.7084 44.8694C66.6895 44.8694 66.6739 46.0238 66.6739 47.4347ZM75.439 47.9011V50H76.4731H77.5072V47.9011V45.8022H76.4731H75.439V47.9011ZM100.553 47.3881V47.9478H101.045H101.537V48.9739V50H102.424H103.31V48.4142V46.8284H101.931H100.553V47.3881ZM94.3155 47.8041C94.0085 48.2412 93.7571 48.6405 93.7571 48.6913C93.7571 48.7422 93.8996 49.0575 94.0738 49.3919L94.3903 50H95.4525C96.0368 50 96.5147 49.9722 96.5147 49.9382C96.5147 49.8574 95.0442 47.1767 94.948 47.0821C94.9072 47.0421 94.6227 47.367 94.3155 47.8041ZM12.0643 48.1343C12.0309 48.1856 11.6516 48.2276 11.2214 48.2276C10.5869 48.2276 10.4393 48.2544 10.4393 48.3696C10.4393 48.4477 10.6171 48.8465 10.8344 49.2558L11.2294 50H12.3018H13.3743L12.8177 49.022C12.5118 48.4841 12.2307 48.0434 12.1933 48.0425C12.1558 48.0417 12.0978 48.083 12.0643 48.1343ZM25.409 48.4608V48.8806H24.7688H24.1287V49.4403V50H25.1902H26.2518L26.8645 49.4145C27.4214 48.8822 27.4771 48.7931 27.4771 48.435V48.041H26.4431H25.409V48.4608ZM41.1172 48.1343C41.0837 48.1856 40.7045 48.2276 40.2743 48.2276C39.7701 48.2276 39.4922 48.2642 39.4922 48.3305C39.4922 48.387 39.6667 48.7858 39.8798 49.2167L40.2673 50H41.3537H42.4401L42.0442 49.3237C41.8264 48.9518 41.576 48.511 41.4876 48.3442C41.3213 48.0304 41.2218 47.9741 41.1172 48.1343ZM47.174 48.5508V48.8806H46.5831H45.9922V49.4403V50H47.6209H49.2496L49.2213 49.1371L49.1929 48.2743L48.1835 48.2477L47.174 48.2211V48.5508ZM63.2086 48.5308C63.1781 48.8305 63.1713 48.8342 62.6114 48.8619L62.0452 48.8899V49.445V50H63.6209H65.1967V49.1138V48.2276H64.218H63.2395L63.2086 48.5308ZM80.3337 48.2867C80.1447 48.4657 80.3001 48.852 80.7818 49.4004L81.2989 49.989L82.5545 49.9945L83.8102 50V49.4869V48.9739H83.0775H82.3449L82.3142 48.6241L82.2837 48.2743L81.3432 48.2478C80.8259 48.2332 80.3717 48.2507 80.3337 48.2867Z" fill="#0F488B"/>
</svg>
